<!-- Generated by IcoMoon.io -->
<svg version="1.1" xmlns="http://www.w3.org/2000/svg" width="32" height="32" viewBox="0 0 32 32">
<title>google</title>
<path fill="#2196f3" d="M31.394 13.038c0.139 0 0.251 0.115 0.251 0.258v2.704c0 1.012-0.092 2.002-0.268 2.962-1.362 7.457-7.777 13.092-15.466 13.038-8.628-0.061-15.532-7.2-15.513-16.036 0.019-8.82 7.007-15.964 15.623-15.964 4.221 0 8.052 1.715 10.864 4.501 0.102 0.101 0.104 0.266 0.004 0.369l-3.736 3.826c-0.096 0.098-0.252 0.101-0.35 0.005-1.765-1.721-4.153-2.777-6.783-2.777-5.43 0-9.802 4.446-9.839 10.007-0.037 5.597 4.382 10.146 9.839 10.146 4.427 0 8.172-2.995 9.407-7.115h-9.155c-0.139 0-0.252-0.115-0.252-0.258v-5.408c0-0.142 0.113-0.258 0.252-0.258l15.121 0z"></path>
<path fill="#1e88e5" d="M31.393 13.038h-1.886c0.139 0 0.251 0.115 0.251 0.258v2.704c0 1.012-0.092 2.002-0.268 2.962-1.299 7.114-7.198 12.57-14.414 13.009 0.276 0.017 0.554 0.026 0.834 0.028 7.689 0.054 14.104-5.581 15.466-13.038 0.176-0.96 0.268-1.95 0.268-2.962v-2.704c0-0.142-0.113-0.258-0.252-0.258z"></path>
<path fill="#f44336" d="M7.084 11.78l-4.745-3.511c2.662-4.931 7.792-8.269 13.682-8.269 4.222 0 8.052 1.715 10.864 4.501 0.102 0.101 0.104 0.266 0.004 0.369l-3.736 3.826c-0.096 0.098-0.251 0.101-0.35 0.005-1.765-1.721-4.153-2.777-6.783-2.777-3.963 0-7.379 2.399-8.937 5.857z"></path>
<path fill="#e53935" d="M5.714 10.767l1.37 1.014c1.423-3.156 4.393-5.429 7.914-5.802 0.027-0.003 0.052-0.006 0.079-0.009-0.31-0.030-0.624-0.046-0.941-0.046-3.58 0-6.7 1.933-8.421 4.843z"></path>
<path fill="#e53935" d="M24.999 4.501c0.102 0.101 0.104 0.266 0.004 0.369l-3.032 3.105c0.291 0.226 0.569 0.468 0.832 0.726 0.099 0.096 0.254 0.094 0.35-0.005l3.736-3.826c0.1-0.102 0.097-0.268-0.004-0.369-2.812-2.786-6.642-4.501-10.864-4.501-0.317 0-0.631 0.011-0.943 0.030 3.847 0.235 7.32 1.894 9.921 4.471z"></path>
<path fill="#4caf50" d="M27.482 26.874c-2.853 3.153-6.932 5.126-11.461 5.126-6.117 0-11.412-3.6-13.977-8.844l4.844-3.4c1.454 3.704 4.995 6.32 9.133 6.32 2.597 0 4.958-1.030 6.716-2.713l4.745 3.51z"></path>
<path fill="#43a047" d="M6.888 19.756l-1.428 1.003c1.659 3.165 4.922 5.318 8.675 5.318 0.317 0 0.631-0.016 0.941-0.046-3.726-0.364-6.846-2.855-8.187-6.274z"></path>
<path fill="#43a047" d="M16.021 32c4.529 0 8.608-1.974 11.461-5.126l-1.162-0.86c-2.679 3.414-6.698 5.679-11.239 5.957 0.311 0.019 0.625 0.029 0.941 0.029z"></path>
<path fill="#ffc107" d="M6.182 16c0 1.328 0.251 2.595 0.707 3.756l-4.844 3.4c-1.054-2.153-1.647-4.584-1.647-7.156 0-2.804 0.704-5.439 1.941-7.731l4.745 3.511c-0.579 1.283-0.902 2.713-0.902 4.22z"></path>
<path fill="#ffb300" d="M5.46 20.759l1.428-1.003c-0.456-1.161-0.707-2.429-0.707-3.756 0-1.507 0.323-2.937 0.902-4.22l-1.37-1.014c-0.889 1.504-1.406 3.269-1.418 5.164-0.012 1.747 0.411 3.392 1.164 4.829z"></path>
</svg>
