<svg aria-hidden="true" style="position: absolute; width: 0; height: 0; overflow: hidden;" version="1.1" xmlns="http://www.w3.org/2000/svg" xmlns:xlink="http://www.w3.org/1999/xlink">
<defs>
<symbol id="icon-Union" viewBox="0 0 125 32">
<path d="M5.915 18.067l2.427-2.663 5.225 9.134h7.011l-8.292-13.685 8.292-10.853h-7.314l-5.292 7.702-2.056 3.118v-10.82h-5.915v24.538h5.915v-6.472zM31.549 22.904c0.157 0.719 0.337 1.264 0.539 1.635h5.68v-0.287c-0.494-0.888-0.753-2.168-0.775-3.843v-8.073c-0.034-1.977-0.725-3.534-2.073-4.668s-3.185-1.702-5.511-1.702c-2.326 0-4.241 0.551-5.747 1.652-1.494 1.101-2.241 2.534-2.241 4.298h5.68c0-1.326 0.674-1.989 2.022-1.989 1.449 0 2.174 0.837 2.174 2.511v0.961h-1.753c-2.786 0-4.91 0.506-6.371 1.517s-2.191 2.506-2.191 4.483c0 1.573 0.601 2.882 1.803 3.927 1.202 1.034 2.663 1.55 4.382 1.55 1.876 0 3.337-0.657 4.382-1.972zM30.285 20.376c-0.461 0.303-1.045 0.455-1.753 0.455-0.539 0-0.983-0.157-1.331-0.472-0.348-0.326-0.523-0.747-0.523-1.264 0-1.775 0.989-2.663 2.966-2.663h1.652v2.916c-0.202 0.382-0.539 0.725-1.011 1.028zM57.082 15.556c0 2.831-0.64 5.095-1.921 6.792-1.27 1.685-2.989 2.528-5.157 2.528-1.674 0-3.050-0.612-4.129-1.837v8.511h-5.68v-25.246h5.309l0.169 1.685c1.090-1.348 2.522-2.022 4.298-2.022 2.247 0 3.994 0.831 5.241 2.494 1.247 1.652 1.871 3.927 1.871 6.826v0.27zM51.402 15.202c0-3.236-0.944-4.854-2.831-4.854-1.348 0-2.247 0.483-2.697 1.449v7.179c0.494 1.011 1.404 1.517 2.73 1.517 1.809 0 2.741-1.562 2.798-4.685v-0.607zM65.593 24.875c2.045 0 3.668-0.77 4.871-2.309l0.168 1.972h5.326v-18.235h-5.713v12.792c-0.55 0.933-1.477 1.399-2.781 1.399-1.517 0-2.275-0.781-2.275-2.343v-11.848h-5.68v11.814c0 2.18 0.511 3.854 1.534 5.022 1.034 1.157 2.55 1.736 4.55 1.736zM88.631 19.415c0-0.483-0.253-0.871-0.758-1.163s-1.467-0.596-2.882-0.91c-1.415-0.315-2.584-0.725-3.506-1.23-0.921-0.517-1.623-1.14-2.107-1.871s-0.724-1.567-0.724-2.511c0-1.674 0.691-3.050 2.073-4.129 1.16-0.915 2.622-1.446 4.384-1.593v-4.142h2.707v4.196c1.648 0.2 3.026 0.713 4.133 1.539 1.46 1.090 2.191 2.522 2.191 4.298h-5.696c0-1.461-0.77-2.191-2.309-2.191-0.595 0-1.096 0.168-1.5 0.506-0.404 0.326-0.607 0.736-0.607 1.23 0 0.506 0.247 0.916 0.741 1.23s1.281 0.573 2.36 0.775c1.089 0.202 2.045 0.444 2.865 0.725 2.741 0.944 4.112 2.635 4.112 5.073 0 1.663-0.742 3.017-2.225 4.062-1.107 0.786-2.462 1.276-4.065 1.471v4.158h-2.707v-4.106c-1.146-0.099-2.192-0.365-3.137-0.799-1.224-0.562-2.179-1.326-2.865-2.292s-1.028-1.983-1.028-3.050h5.309c0.022 0.843 0.303 1.461 0.842 1.854 0.539 0.382 1.23 0.573 2.073 0.573 0.775 0 1.354-0.157 1.736-0.472 0.394-0.315 0.59-0.725 0.59-1.23zM103.395 6.303v-4.534h-5.68v4.534h-2.326v3.944h2.326v9.050c0 1.876 0.466 3.275 1.398 4.196s2.376 1.382 4.332 1.382c1.112 0 2.179-0.163 3.202-0.489v-4.062c-0.382 0.067-0.854 0.101-1.415 0.101-0.731 0-1.219-0.135-1.467-0.404s-0.37-0.747-0.37-1.433v-8.342h3v-3.944h-3zM118.916 24.538c-0.202-0.371-0.382-0.916-0.539-1.635-1.045 1.315-2.506 1.972-4.382 1.972-1.719 0-3.18-0.517-4.382-1.55-1.202-1.045-1.803-2.354-1.803-3.927 0-1.977 0.731-3.472 2.191-4.483s3.584-1.517 6.37-1.517h1.753v-0.961c0-1.674-0.725-2.511-2.174-2.511-1.349 0-2.023 0.663-2.023 1.989h-5.68c0-1.764 0.748-3.197 2.242-4.298 1.505-1.101 3.421-1.652 5.746-1.652s4.163 0.567 5.511 1.702c1.348 1.135 2.039 2.691 2.073 4.668v8.073c0.022 1.674 0.281 2.955 0.775 3.843v0.287h-5.68zM115.36 20.831c0.708 0 1.292-0.152 1.753-0.455 0.472-0.303 0.809-0.646 1.011-1.028v-2.916h-1.652c-1.977 0-2.966 0.888-2.966 2.663 0 0.517 0.174 0.938 0.523 1.264 0.348 0.315 0.792 0.472 1.331 0.472z"></path>
</symbol>
</defs>
</svg>
