<svg aria-hidden="true" style="position: absolute; width: 0; height: 0; overflow: hidden;" version="1.1" xmlns="http://www.w3.org/2000/svg" xmlns:xlink="http://www.w3.org/1999/xlink">
<defs>
<symbol id="icon-calendar" viewBox="0 0 32 32">
<path d="M27.961 3.307h-2.099v-0.514c0-0.518-0.42-0.938-0.937-0.938s-0.937 0.42-0.937 0.938v0.514h-2.587v-0.514c0-0.518-0.42-0.938-0.938-0.938s-0.937 0.42-0.937 0.938v0.514h-2.587v-0.514c0-0.518-0.42-0.938-0.937-0.938s-0.938 0.42-0.938 0.938v0.514h-2.587v-0.514c0-0.518-0.42-0.938-0.938-0.938s-0.938 0.42-0.938 0.938v0.514h-2.587v-0.514c0-0.518-0.42-0.938-0.938-0.938s-0.938 0.42-0.938 0.938v0.514h-2.099c-2.227 0-4.039 1.812-4.039 4.039v18.758c0 2.227 1.812 4.039 4.039 4.039h23.921c2.227 0 4.039-1.812 4.039-4.039v-18.758c0-2.227-1.812-4.039-4.039-4.039zM30.125 26.105c0 1.193-0.971 2.164-2.164 2.164h-23.921c-1.193 0-2.164-0.971-2.164-2.164v-15.333h28.25v15.333zM30.125 8.897h-28.25v-1.55c0-1.193 0.971-2.164 2.164-2.164h2.099v0.362c0 0.518 0.42 0.938 0.938 0.938s0.938-0.42 0.938-0.938v-0.362h2.587v0.362c0 0.518 0.42 0.938 0.938 0.938s0.938-0.42 0.938-0.938v-0.362h2.587v0.362c0 0.518 0.42 0.938 0.938 0.938s0.937-0.42 0.937-0.938v-0.362h2.587v0.362c0 0.518 0.42 0.938 0.937 0.938s0.938-0.42 0.938-0.938v-0.362h2.587v0.362c0 0.518 0.42 0.938 0.937 0.938s0.937-0.42 0.937-0.938v-0.362h2.099c1.193 0 2.164 0.971 2.164 2.164v1.55z"></path>
<path d="M10.451 12.771h-3.699c-0.518 0-0.938 0.42-0.938 0.938v3.827c0 0.518 0.42 0.938 0.938 0.938h3.699c0.518 0 0.938-0.42 0.938-0.938v-3.827c0-0.518-0.42-0.938-0.938-0.938zM9.513 16.598h-1.824v-1.952h1.824v1.952z"></path>
<path d="M17.85 12.771h-3.699c-0.518 0-0.938 0.42-0.938 0.938v3.827c0 0.518 0.42 0.938 0.938 0.938h3.699c0.518 0 0.937-0.42 0.937-0.938v-3.827c0-0.518-0.42-0.938-0.937-0.938zM16.912 16.598h-1.824v-1.952h1.824v1.952z"></path>
<path d="M25.248 12.771h-3.699c-0.518 0-0.937 0.42-0.937 0.938v3.827c0 0.518 0.42 0.938 0.937 0.938h3.699c0.518 0 0.937-0.42 0.937-0.938v-3.827c0-0.518-0.42-0.938-0.937-0.938zM24.311 16.598h-1.824v-1.952h1.824v1.952z"></path>
<path d="M10.451 20.041h-3.699c-0.518 0-0.938 0.42-0.938 0.937v3.827c0 0.518 0.42 0.938 0.938 0.938h3.699c0.518 0 0.938-0.42 0.938-0.938v-3.827c0-0.518-0.42-0.937-0.938-0.937zM9.513 23.869h-1.824v-1.952h1.824v1.952z"></path>
<path d="M17.85 20.041h-3.699c-0.518 0-0.938 0.42-0.938 0.937v3.827c0 0.518 0.42 0.938 0.938 0.938h3.699c0.518 0 0.937-0.42 0.937-0.938v-3.827c0-0.518-0.42-0.937-0.937-0.937zM16.912 23.869h-1.824v-1.952h1.824v1.952z"></path>
<path d="M25.248 20.041h-3.699c-0.518 0-0.937 0.42-0.937 0.937v3.827c0 0.518 0.42 0.938 0.937 0.938h3.699c0.518 0 0.937-0.42 0.937-0.938v-3.827c0-0.518-0.42-0.937-0.937-0.937zM24.311 23.869h-1.824v-1.952h1.824v1.952z"></path>
</symbol>
<symbol id="icon-calculator" viewBox="0 0 32 32">
<path d="M27.25 0h-22.5c-1.551 0-2.813 1.262-2.813 2.813v26.375c0 1.551 1.262 2.812 2.813 2.812h22.5c1.551 0 2.813-1.262 2.813-2.812v-26.375c0-1.551-1.262-2.813-2.813-2.813zM28.188 29.188c0 0.517-0.421 0.937-0.938 0.937h-22.5c-0.517 0-0.938-0.42-0.938-0.937v-26.375c0-0.517 0.421-0.938 0.938-0.938h22.5c0.517 0 0.938 0.421 0.938 0.938v26.375z"></path>
<path d="M25.375 3.75h-18.75c-0.518 0-0.938 0.42-0.938 0.938v7.625c0 0.518 0.42 0.938 0.938 0.938h18.75c0.518 0 0.937-0.42 0.937-0.938v-7.625c0-0.518-0.42-0.938-0.937-0.938zM24.437 11.375h-16.875v-5.75h16.875v5.75z"></path>
<path d="M10.375 15.125h-3.75c-0.518 0-0.938 0.42-0.938 0.938v3.75c0 0.518 0.42 0.938 0.938 0.938h3.75c0.518 0 0.938-0.42 0.938-0.938v-3.75c0-0.518-0.42-0.938-0.938-0.938zM9.438 18.875h-1.875v-1.875h1.875v1.875z"></path>
<path d="M10.375 22.625h-3.75c-0.518 0-0.938 0.42-0.938 0.938v3.75c0 0.518 0.42 0.937 0.938 0.937h3.75c0.518 0 0.938-0.42 0.938-0.937v-3.75c0-0.518-0.42-0.938-0.938-0.938zM9.438 26.375h-1.875v-1.875h1.875v1.875z"></path>
<path d="M17.875 15.125h-3.75c-0.518 0-0.938 0.42-0.938 0.938v3.75c0 0.518 0.42 0.938 0.938 0.938h3.75c0.518 0 0.937-0.42 0.937-0.938v-3.75c0-0.518-0.42-0.938-0.937-0.938zM16.937 18.875h-1.875v-1.875h1.875v1.875z"></path>
<path d="M17.875 22.625h-3.75c-0.518 0-0.938 0.42-0.938 0.938v3.75c0 0.518 0.42 0.937 0.938 0.937h3.75c0.518 0 0.937-0.42 0.937-0.937v-3.75c0-0.518-0.42-0.938-0.937-0.938zM16.937 26.375h-1.875v-1.875h1.875v1.875z"></path>
<path d="M25.375 15.125h-3.75c-0.518 0-0.937 0.42-0.937 0.938v11.25c0 0.518 0.42 0.937 0.937 0.937h3.75c0.518 0 0.937-0.42 0.937-0.937v-11.25c0-0.518-0.42-0.938-0.937-0.938zM24.437 26.375h-1.875v-9.375h1.875v9.375z"></path>
</symbol>
<symbol id="icon-delete" viewBox="0 0 32 32">
<path d="M28.992 7.153l-0.707-2.118c-0.269-0.807-1.021-1.349-1.871-1.349h-5.938v-1.933c0-0.966-0.786-1.753-1.752-1.753h-5.438c-0.966 0-1.752 0.786-1.752 1.753v1.933h-5.938c-0.85 0-1.603 0.542-1.872 1.349l-0.707 2.118c-0.161 0.482-0.079 1.016 0.218 1.428s0.778 0.659 1.286 0.659h0.739l1.625 20.1c0.121 1.491 1.386 2.66 2.882 2.66h12.804c1.495 0 2.761-1.169 2.882-2.66l1.625-20.1h0.409c0.508 0 0.989-0.246 1.286-0.658s0.379-0.947 0.218-1.429zM13.41 1.875h5.191v1.811h-5.191v-1.811zM23.585 29.189c-0.043 0.525-0.487 0.936-1.013 0.936h-12.804c-0.525 0-0.97-0.411-1.013-0.936l-1.614-19.949h18.056l-1.613 19.949zM4.924 7.365l0.579-1.737c0.013-0.040 0.051-0.067 0.093-0.067h20.818c0.042 0 0.079 0.027 0.093 0.067l0.579 1.737h-22.162z"></path>
<path d="M20.595 29.122c0.017 0.001 0.033 0.001 0.050 0.001 0.495 0 0.909-0.388 0.935-0.889l0.88-16.9c0.027-0.517-0.371-0.958-0.887-0.985-0.518-0.028-0.958 0.37-0.985 0.887l-0.88 16.9c-0.027 0.517 0.37 0.958 0.887 0.985z"></path>
<path d="M10.473 28.237c0.027 0.5 0.441 0.886 0.935 0.886 0.017 0 0.035-0.001 0.052-0.001 0.517-0.028 0.913-0.47 0.885-0.987l-0.922-16.9c-0.028-0.517-0.47-0.913-0.987-0.885s-0.913 0.47-0.885 0.987l0.922 16.9z"></path>
<path d="M16.016 29.123c0.518 0 0.938-0.42 0.938-0.937v-16.9c0-0.518-0.42-0.938-0.938-0.938s-0.938 0.42-0.938 0.938v16.9c0 0.518 0.42 0.937 0.938 0.937z"></path>
</symbol>
<symbol id="icon-logout" viewBox="0 0 32 32">
<path fill="#cbccd0" d="M20 28h-16v-24h16v2h4v-6h-24v32h24v-6h-4v2h-0z"></path>
<path  fill="#cbccd0" d="M24.586 8.586l-2.828 2.828 2.586 2.586h-10.344v4h10.344l-2.586 2.586 2.828 2.828 7.414-7.414-7.414-7.414z"></path>
</symbol>
<symbol id="icon-bar_chart-24px" viewBox="0 0 32 32">
<path d="M6.667 12.267h4v13.067h-4v-13.067zM14.133 6.667h3.733v18.667h-3.733v-18.667zM21.6 17.333h3.733v8h-3.733v-8z"></path>
</symbol>

<symbol id="icon-close" viewBox="0 0 32 32">
<path fill="none" stroke="#52555f" style="stroke: var(--color1, #52555f)" stroke-linejoin="miter" stroke-linecap="butt" stroke-miterlimit="4" stroke-width="4.5714" d="M2.286 2.286l27.429 27.429"></path>
<path fill="none" stroke="#52555f" style="stroke: var(--color1, #52555f)" stroke-linejoin="miter" stroke-linecap="butt" stroke-miterlimit="4" stroke-width="4.5714" d="M2.286 29.714l27.429-27.429"></path>
</symbol>


<symbol id="icon-back" viewBox="0 0 19 32">
<path fill="none" stroke="#ff751d" style="stroke: var(--color1, #ff751d)" stroke-linejoin="miter" stroke-linecap="butt" stroke-miterlimit="4" stroke-width="5.3333" d="M16 2.667l-10.667 13.333 10.667 13.333"></path>
</symbol>

<symbol id="icon-forward" viewBox="0 0 19 32">
<path fill="none" stroke="#ff751d" style="stroke: var(--color1, #ff751d)" stroke-linejoin="miter" stroke-linecap="butt" stroke-miterlimit="4" stroke-width="5.3333" d="M2.667 2.667l10.667 13.333-10.667 13.333"></path>
</symbol>

<symbol id="icon-keyboard_backspace-24px-1" viewBox="0 0 32 32">
<path fill="#ff751d" style="fill: var(--color1, #ff751d)" d="M28 14.667h-18.893l4.773-4.787-1.88-1.88-8 8 8 8 1.88-1.88-4.773-4.787h18.893v-2.667z"></path>
</symbol>
<symbol id="icon-arrow-down" viewBox="0 0 55 32">
<path fill="none" stroke="#c7ccdc" style="stroke: var(--color1, #c7ccdc)" stroke-linejoin="miter" stroke-linecap="butt" stroke-miterlimit="4" stroke-width="9.1429" d="M4.571 4.571l22.857 18.286 22.857-18.286"></path>
</symbol>
<symbol id="icon-arrow-up" viewBox="0 0 55 32">
<path fill="none" stroke="#c7ccdc" style="stroke: var(--color1, #c7ccdc)" stroke-linejoin="miter" stroke-linecap="butt" stroke-miterlimit="4" stroke-width="9.1429" d="M4.571 27.429l22.857-18.286 22.857 18.286"></path>
</symbol>
<symbol id="icon-logo" viewBox="0 0 93 32">
<path fill="#fb7c2f" style="fill: var(--color1, #fb7c2f)" d="M14.452 5.161h17.548c4.561 0 8.258 3.697 8.258 8.258v10.323c0 4.561-3.697 8.258-8.258 8.258h-17.548c-4.561 0-8.258-3.697-8.258-8.258v-10.323c0-4.561 3.697-8.258 8.258-8.258z"></path>
<path fill="#fb7c2f" style="fill: var(--color1, #fb7c2f)" opacity="0.2" d="M8.258 0h17.548c4.561 0 8.258 3.697 8.258 8.258v10.323c0 4.561-3.697 8.258-8.258 8.258h-17.548c-4.561 0-8.258-3.697-8.258-8.258v-10.323c0-4.561 3.697-8.258 8.258-8.258z"></path>
<path fill="#000" style="fill: var(--color2, #000)" d="M23.88 21.234l1.326-1.455 2.856 4.994h3.834l-4.534-7.483 4.534-5.934h-3.999l-2.893 4.212-1.125 1.704v-5.916h-3.234v13.417h3.235v-3.539zM38.929 23.878c0.086 0.393 0.185 0.692 0.295 0.894h3.105v-0.157c-0.27-0.485-0.411-1.185-0.423-2.101v-4.414c-0.019-1.082-0.396-1.932-1.133-2.553-0.738-0.62-1.742-0.931-3.014-0.931s-2.319 0.301-3.142 0.903c-0.817 0.602-1.225 1.385-1.225 2.35h3.105c0-0.726 0.369-1.088 1.107-1.088 0.792 0 1.188 0.458 1.188 1.373v0.526h-0.958c-1.524 0-2.685 0.276-3.484 0.829-0.799 0.552-1.197 1.37-1.197 2.451 0 0.861 0.328 1.576 0.986 2.147 0.658 0.566 1.455 0.849 2.395 0.849 1.027 0 1.825-0.359 2.397-1.079zM38.237 22.496c-0.252 0.165-0.571 0.249-0.958 0.249-0.295 0-0.537-0.086-0.728-0.258-0.176-0.165-0.286-0.4-0.286-0.66 0-0.011 0-0.022 0.001-0.033l-0 0.002c0-0.97 0.541-1.455 1.622-1.455h0.903v1.595c-0.11 0.209-0.295 0.396-0.553 0.562zM52.89 19.861c0 1.548-0.351 2.786-1.051 3.714-0.694 0.921-1.634 1.382-2.82 1.382-0.915 0-1.667-0.335-2.258-1.004v4.653h-3.105v-13.804h2.903l0.093 0.922c0.595-0.738 1.378-1.107 2.349-1.107 1.228 0 2.183 0.454 2.866 1.365 0.681 0.902 1.023 2.147 1.023 3.732v0.148zM49.784 19.667c0-1.769-0.516-2.653-1.548-2.653-0.737 0-1.228 0.263-1.474 0.792v3.926c0.27 0.553 0.768 0.83 1.494 0.83 0.989 0 1.499-0.855 1.529-2.562v-0.332zM58.575 24.957c1.119 0 2.007-0.421 2.663-1.262l0.093 1.078h2.911v-9.972h-3.123v6.996c-0.3 0.51-0.807 0.764-1.521 0.764-0.829 0-1.244-0.426-1.244-1.28v-6.478h-3.105v6.46c0 1.191 0.279 2.107 0.838 2.746 0.565 0.633 1.394 0.95 2.488 0.95zM71.173 21.971c0-0.264-0.138-0.475-0.415-0.636-0.277-0.159-0.801-0.325-1.575-0.498-0.774-0.171-1.414-0.396-1.917-0.672-0.504-0.283-0.888-0.625-1.152-1.023-0.249-0.375-0.397-0.836-0.397-1.331 0-0.015 0-0.029 0-0.044l-0 0.002c0-0.916 0.378-1.668 1.133-2.259 0.635-0.501 1.434-0.791 2.398-0.871v-2.263h1.48v2.294c0.901 0.109 1.654 0.39 2.26 0.841 0.798 0.597 1.197 1.379 1.197 2.35h-3.114c0-0.799-0.421-1.197-1.262-1.197-0.012-0-0.026-0.001-0.041-0.001-0.297 0-0.569 0.104-0.782 0.278l0.002-0.002c-0.202 0.153-0.331 0.393-0.331 0.663 0 0.004 0 0.007 0 0.011v-0.001c0 0.276 0.134 0.501 0.406 0.672 0.269 0.172 0.7 0.314 1.29 0.424 0.608 0.109 1.135 0.246 1.645 0.42l-0.079-0.023c1.499 0.516 2.248 1.441 2.248 2.774 0 0.908-0.405 1.65-1.216 2.22-0.606 0.43-1.346 0.699-2.222 0.805v2.273h-1.48v-2.244c-0.631-0.050-1.214-0.206-1.748-0.451l0.032 0.013c-0.67-0.307-1.192-0.725-1.567-1.253-0.375-0.527-0.562-1.084-0.562-1.668h2.903c0.011 0.461 0.165 0.799 0.46 1.015 0.295 0.209 0.673 0.313 1.133 0.313 0.423 0 0.74-0.086 0.95-0.258 0.197-0.151 0.322-0.387 0.322-0.652 0-0.007-0-0.015-0-0.022l0 0.001zM80.278 14.802v-2.479h-3.105v2.479h-1.272v2.156h1.272v4.949c0 1.026 0.255 1.791 0.764 2.295 0.511 0.504 1.301 0.756 2.369 0.756 0.609 0 1.192-0.090 1.751-0.268v-2.219c-0.213 0.035-0.458 0.055-0.707 0.055-0.024 0-0.047-0-0.071-0.001l0.004 0c-0.398 0-0.666-0.074-0.801-0.221-0.135-0.148-0.203-0.409-0.203-0.785v-4.561h1.641v-2.157h-1.641zM89.797 24.773c-0.11-0.203-0.209-0.502-0.294-0.895-0.572 0.719-1.37 1.079-2.396 1.079-0.939 0-1.739-0.283-2.396-0.849-0.658-0.571-0.987-1.286-0.987-2.147 0-1.081 0.399-1.898 1.197-2.451 0.8-0.553 1.961-0.83 3.484-0.83h0.959v-0.525c0-0.915-0.396-1.373-1.189-1.373-0.737 0-1.106 0.362-1.106 1.088h-3.105c0-0.965 0.408-1.749 1.225-2.35 0.823-0.602 1.87-0.903 3.142-0.903s2.276 0.31 3.014 0.931c0.736 0.62 1.115 1.471 1.132 2.553v4.414c0.012 0.916 0.155 1.615 0.424 2.101v0.157h-3.105zM87.853 22.745c0.387 0 0.706-0.083 0.958-0.248 0.258-0.167 0.443-0.354 0.553-0.563v-1.595h-0.903c-1.081 0-1.622 0.485-1.622 1.455 0 0.283 0.095 0.514 0.285 0.692 0.191 0.172 0.434 0.258 0.729 0.258z"></path>
</symbol>
</defs>
</svg>
